<svg xmlns="http://www.w3.org/2000/svg" xmlns:xlink="http://www.w3.org/1999/xlink" width="459.53" height="96.854" viewBox="0 0 459.53 96.854">
  <defs>
    <clipPath id="clip-path">
      <rect width="459" height="96" fill="none"/>
    </clipPath>
  </defs>
  <g id="caracteristicas" transform="translate(0.002)">
    <g id="caracteristicas-2" data-name="caracteristicas" transform="translate(0.026)" clip-path="url(#clip-path)">
      <g transform="translate(-710 -824)">
        <path id="Path_8" data-name="Path 8" d="M0,0H230V50H0Z" transform="translate(710 824)" fill="#fec63e"/>
        <text id="conforto" transform="translate(826 855)" font-size="18" font-family="Arial-BoldMT, Arial" font-weight="700" letter-spacing="0.05em"><tspan x="-54.483" y="0">CONFORTO</tspan></text>
      </g>
      <g transform="translate(-480 -824)">
        <path id="Path_8-2" data-name="Path 8" d="M0,0H230V50H0Z" transform="translate(710 824)" fill="#fec63e"/>
        <text id="velocidade" transform="translate(826 855)" font-size="18" font-family="Arial-BoldMT, Arial" font-weight="700" letter-spacing="0.05em"><tspan x="-63.055" y="0">VELOCIDADE</tspan></text>
      </g>
      <g transform="translate(-710 -774)">
        <path id="Path_8-3" data-name="Path 8" d="M0,0H230V50H0Z" transform="translate(710 824)" fill="#fec63e"/>
        <text id="design" transform="translate(826 855)" font-size="18" font-family="Arial-BoldMT, Arial" font-weight="700" letter-spacing="0.05em"><tspan x="-36.756" y="0">DESIGN</tspan></text>
      </g>
      <g transform="translate(-480 -774)">
        <path id="Path_8-4" data-name="Path 8" d="M0,0H230V50H0Z" transform="translate(710 824)" fill="#fec63e"/>
        <text id="versatilidade" transform="translate(826 855)" font-size="18" font-family="Arial-BoldMT, Arial" font-weight="700" letter-spacing="0.05em"><tspan x="-77.237" y="0">VERSATILIDADE</tspan></text>
      </g>
    </g>
    <line id="Line_11" data-name="Line 11" x2="1" y2="95.855" transform="translate(229.081 0.988)" fill="none" stroke="#000" stroke-width="2"/>
    <line id="Line_12" data-name="Line 12" y1="1" x2="459.526" transform="translate(0 48.5)" fill="none" stroke="#000" stroke-width="2"/>
    <path id="Path_15" data-name="Path 15" d="M0,99" transform="translate(1 -2.157)" fill="none" stroke="#000" stroke-width="2"/>
  </g>
</svg>
